<svg xmlns="http://www.w3.org/2000/svg" width="19.52" height="16.508" viewBox="0 0 19.52 16.508">
  <g id="heart-icon" transform="translate(1.76 -37.06)">
    <path id="Path_73" data-name="Path 73" d="M890.373,124.382a5.068,5.068,0,0,0-2.027-3.17,4.057,4.057,0,0,0-3.3-.576,7.461,7.461,0,0,0-3.541,2.217,7.46,7.46,0,0,0-3.54-2.217,4.057,4.057,0,0,0-3.3.576,5.069,5.069,0,0,0-2.027,3.17,6.4,6.4,0,0,0,.553,4.2,13.961,13.961,0,0,0,5.026,5.345,15.73,15.73,0,0,0,3.14,1.567.456.456,0,0,0,.286,0,15.712,15.712,0,0,0,3.14-1.567,13.962,13.962,0,0,0,5.026-5.345A6.4,6.4,0,0,0,890.373,124.382Z" transform="translate(-873.51 -82.696)" fill="none" stroke="#fff" stroke-miterlimit="10" stroke-width="1.5"/>
  </g>
</svg>
