<svg xmlns="http://www.w3.org/2000/svg" width="7" height="32" viewBox="0 0 7 32">
  <g id="menu-icon" transform="translate(-325 -13.5)">
    <path id="menu-icon-2" data-name="menu-icon" d="M-1560-4552a2.5,2.5,0,0,1,2.5-2.5,2.5,2.5,0,0,1,2.5,2.5,2.5,2.5,0,0,1-2.5,2.5A2.5,2.5,0,0,1-1560-4552Zm0-13a2.5,2.5,0,0,1,2.5-2.5,2.5,2.5,0,0,1,2.5,2.5,2.5,2.5,0,0,1-2.5,2.5A2.5,2.5,0,0,1-1560-4565Zm0-12a2.5,2.5,0,0,1,2.5-2.5,2.5,2.5,0,0,1,2.5,2.5,2.5,2.5,0,0,1-2.5,2.5A2.5,2.5,0,0,1-1560-4577Z" transform="translate(1886 4594)" fill="rgba(0,0,0,0)" stroke="#0aa09f" stroke-linejoin="round" stroke-width="2"/>
  </g>
</svg>
