<svg xmlns="http://www.w3.org/2000/svg" width="37" height="30" viewBox="0 0 37 30"><defs><style>.a{fill:#0aa09f;}</style></defs><path class="a" d="M18.5,0A15.066,15.066,0,0,0,4,10.724C3.354,12.76,1.753,13.348.471,14.208a.926.926,0,0,0,0,1.584C1.8,16.606,3.4,17.195,4,19.231A15.189,15.189,0,0,0,18.548,30h0A15.066,15.066,0,0,0,33.055,19.276c.641-2.036,2.242-2.624,3.524-3.484a.926.926,0,0,0,0-1.584c-1.327-.814-2.929-1.4-3.524-3.439A15.189,15.189,0,0,0,18.5,0Zm0,27.738a12.761,12.761,0,1,1,12.905-12.76A12.819,12.819,0,0,1,18.5,27.738Zm0-8.507h0a4.254,4.254,0,1,1,0-8.507h0a4.254,4.254,0,1,1,0,8.507Z" transform="translate(-0.025)"/></svg>