<svg xmlns="http://www.w3.org/2000/svg" width="37.001" height="28" viewBox="0 0 37.001 28">
  <path id="market-icon" d="M162.08,295.865v16.074H134.321v-15.92m10,3.879h9v11.648h-9ZM162.2,285.939H134.441l-3.62,4.481h35Zm3.621,5.383c0,1.907-2.3,3.651-4.828,3.651a6.676,6.676,0,0,1-3.621-.913c-1.079,1.3-2.656,1.825-4.828,1.825a7.709,7.709,0,0,1-4.828-1.369,6.007,6.007,0,0,1-4.224,1.369,4.631,4.631,0,0,1-4.224-1.825,9.014,9.014,0,0,1-4.224.913c-2.522,0-4.224-1.744-4.224-3.651v-.913h35Z" transform="translate(-129.82 -284.939)" fill="none" stroke="#b1a1a1" stroke-linecap="round" stroke-linejoin="round" stroke-width="2"/>
</svg>
