<svg xmlns="http://www.w3.org/2000/svg" width="37" height="32" viewBox="0 0 37 32">
  <g id="message-nav-icon" transform="translate(-170 -10)">
    <path id="message-nav-icon-2" data-name="message-nav-icon" d="M-1527.348-4553v-6H-1538v-24h35v24h-18.261l-6.085,6Zm15.6-21a2.254,2.254,0,0,0-2.251,2.251,2.253,2.253,0,0,0,2.251,2.25,2.252,2.252,0,0,0,2.25-2.25A2.253,2.253,0,0,0-1511.749-4574Zm-9,0a2.253,2.253,0,0,0-2.25,2.251,2.252,2.252,0,0,0,2.25,2.25,2.252,2.252,0,0,0,2.25-2.25A2.253,2.253,0,0,0-1520.749-4574Zm-9,0a2.253,2.253,0,0,0-2.25,2.251,2.252,2.252,0,0,0,2.25,2.25,2.252,2.252,0,0,0,2.25-2.25A2.253,2.253,0,0,0-1529.749-4574Z" transform="translate(1709 4594)" fill="rgba(0,0,0,0)" stroke="#0aa09f" stroke-linecap="round" stroke-linejoin="round" stroke-width="2"/>
  </g>
</svg>
